<?xml version="1.0" encoding="utf-8"?>
<svg version="1.1" id="Layer_1" xmlns="http://www.w3.org/2000/svg" x="0px" y="0px" width="100%" viewBox="185.798 181.895 654.659 633.533" enable-background="new 0 0 1024 1024">
  <path fill="#F9F6F1" opacity="1.000000" stroke="none" d="M 269 199.001 C 273.409 197.339 277.818 195.678 282.794 194.33 C 285.341 194.802 287.351 195.26 289.292 195.059 C 294.43 194.526 298.31 197.417 296.35 200.767 C 293.487 205.66 296.878 206.53 300.028 206.822 C 302.876 207.085 305.858 206.185 308.748 205.626 C 314.55 204.504 320.322 203.226 326.128 202.125 C 326.849 201.988 327.687 202.61 328.493 202.754 C 335.818 204.062 343.289 207.246 350.044 201.038 C 350.613 200.515 351.54 200.225 352.337 200.131 C 361.498 199.053 370.644 197.658 379.839 197.124 C 386.682 196.727 393.913 198.862 400.394 197.367 C 409.762 195.206 416.958 199.097 424.747 202.393 C 430.967 205.025 437.269 207.508 443.686 209.592 C 445.212 210.087 447.948 209.304 449.094 208.114 C 455.148 201.826 463.369 203.677 470.583 202.316 C 477.439 201.023 484.636 201.365 491.685 201.312 C 500.894 201.243 510.105 201.495 519.316 201.603 C 523.958 201.658 528.629 202.061 533.236 201.68 C 545.921 200.631 558.56 198.953 571.256 198.127 C 577.443 197.725 583.732 198.491 589.947 199.043 C 598.67 199.818 607.349 201.156 616.082 201.745 C 623.297 202.232 630.677 202.82 637.778 201.852 C 647.235 200.564 655.948 200.697 663.791 206.837 C 664.539 207.423 665.593 207.774 666.551 207.914 C 674.337 209.045 681.542 207.425 688.324 203.434 C 693.934 200.132 699.954 198.095 706.068 201.81 C 710.487 204.495 714.446 207.935 718.63 211.01 C 719.151 211.392 719.871 211.947 720.376 211.84 C 725.498 210.76 727.883 214.514 731.147 217.274 C 734.424 220.045 735.206 221.841 731.387 224.512 C 730.609 225.056 730.17 226.461 730.062 227.519 C 729.543 232.585 737.394 239.757 742.437 238.893 C 743.053 238.787 743.742 238.482 744.176 238.047 C 746.078 236.143 748.096 234.301 749.664 232.14 C 750.414 231.106 750.776 229.255 750.411 228.047 C 749.258 224.233 750.719 222.09 754.033 220.433 C 757.963 218.468 758.771 214.895 757.315 211.176 C 756.391 208.815 754.953 206.856 758.18 205.509 C 761.001 204.332 763.677 204.856 764.757 207.965 C 765.817 211.016 767.727 211.802 770.722 212.128 C 774.925 212.586 779.145 213.122 781.69 217.691 C 782.757 219.607 785.123 219.959 786.803 216.812 C 788.904 218.532 791.207 220.427 792.745 222.239 C 792.798 224.298 792.548 226.547 793.541 227.844 C 797.202 232.621 801.232 237.119 805.211 241.646 C 806.936 243.608 808.865 245.526 811.304 242.145 C 813.071 244.533 814.542 246.765 815.65 248.958 C 810.144 249.375 804.991 249.757 799.867 250.378 C 799.205 250.458 798.321 251.715 798.178 252.538 C 797.644 255.626 797.058 258.762 797.069 261.878 C 797.099 269.84 805.674 276.673 813.085 274.795 C 817.747 273.613 822.368 272.268 827.274 271.228 C 829.379 277.116 832.071 282.649 832.894 288.448 C 835.325 305.575 837.017 322.807 838.997 340.466 C 837.396 461.281 842.433 581.682 835.66 702.177 C 832.886 711.24 830.436 720.114 827.73 729.22 C 826.318 732.301 825.163 735.149 823.856 738.308 C 822.794 740.717 821.883 742.815 820.68 745.088 C 810.142 761.419 797.565 775.332 781.674 786.189 C 753.052 805.745 720.503 813.408 686.834 813.659 C 574.206 814.497 461.569 814.003 348.935 813.953 C 342.806 813.951 336.673 813.427 330.55 813.024 C 308.054 811.546 286.254 807.261 265.46 798.084 C 249.534 791.056 235.573 781.283 223.671 768.841 C 216.728 761.583 211.197 752.974 204.979 744.614 C 201.269 734.694 197.193 725.266 194.088 715.529 C 191.756 708.215 190.674 700.504 189.032 692.514 C 188.353 682.312 187.1 672.566 187.087 662.818 C 186.946 556.213 186.997 449.608 187.001 342.574 C 187.004 340.431 187.003 338.716 187.004 336.625 C 187.008 335.496 187.01 334.743 187.015 333.552 C 188.808 318.848 190.025 304.48 192.549 290.346 C 195.186 275.574 200.641 261.628 208.746 248.876 C 219.808 231.469 234.422 217.693 252.01 207.373 C 255.619 210.194 259.081 212.889 262.878 214.973 C 264.614 215.925 267.046 216.069 269.1 215.886 C 273.88 215.461 275.424 212.616 273.916 208.061 C 273.082 205.543 272.548 202.926 271.763 199.907 C 271.286 199.751 270.143 199.376 269 199.001 M 674.62 411.704 C 674.735 410.799 674.849 409.893 674.883 408.147 C 677.501 394.836 677.961 381.437 675.994 368.029 C 672.715 345.686 662.327 326.927 644.935 312.811 C 633.685 303.68 620.648 296.983 606.488 292.911 C 600.302 291.133 594.337 288.286 588.052 287.216 C 576.789 285.298 564.886 285.707 553.541 283.378 C 548.276 278.695 544.979 277.748 542.07 282.816 C 532.115 282.776 522.16 282.746 512.205 282.694 C 492.804 282.594 473.404 282.482 453.935 282.018 C 453.621 282.136 453.307 282.254 452.092 282.632 C 420.264 282.632 388.436 282.626 356.608 282.646 C 354.617 282.648 352.254 282.226 350.73 283.127 C 348.869 284.229 346.446 286.515 346.438 288.299 C 346.269 323.286 346.416 358.274 346.498 393.261 C 346.503 395.314 346.498 397.367 346.498 400.317 C 363.029 389.914 378.53 380.187 394.004 370.415 C 430.463 347.393 466.913 324.358 503.349 301.298 C 506.35 299.399 509.086 299.376 512.184 301.243 C 544.833 320.929 577.551 340.502 610.174 360.23 C 613.268 362.102 616.081 364.593 618.626 367.188 C 625.324 374.019 626.838 385.497 622.352 394.607 C 620.037 393.3 617.706 392.05 615.44 390.693 C 581.584 370.424 547.68 350.233 513.953 329.752 C 509.311 326.934 506.03 326.967 501.443 329.887 C 450.737 362.168 399.874 394.2 349.143 426.441 C 347.73 427.339 346.555 429.814 346.552 431.556 C 346.449 510.043 346.483 588.531 346.522 667.018 C 346.526 674.941 349.031 676.481 355.926 672.796 C 417.139 640.082 478.339 607.344 539.546 574.617 C 548.06 570.064 556.59 565.542 565.104 560.989 C 568.121 559.377 570.891 559.08 572.747 562.59 C 576.131 568.987 572.712 581.053 566.458 584.85 C 562.919 586.999 559.314 589.038 555.07 591.164 C 493.988 624.167 432.907 657.17 371.825 690.173 C 371.952 690.478 372.079 690.783 372.207 691.088 C 414.667 691.088 457.128 691.088 500.572 691.205 C 521.887 690.833 543.243 691.154 564.508 689.917 C 591.954 688.319 618.55 682.473 643.407 670.067 C 670.834 656.378 692.466 636.933 701.907 607.045 C 712.905 572.223 710.618 538.182 692.562 505.742 C 696.367 502.354 695.995 498.819 691.68 496.734 C 690.512 496.17 688.97 495.574 688.477 494.564 C 686.617 490.755 683.385 490.813 679.341 490.856 C 678.369 489.663 677.397 488.47 677.107 486.847 C 680.13 482.075 674.776 480.022 673.569 476.646 C 673.117 475.383 670.398 474.109 668.905 474.304 C 667.748 474.455 666.889 476.886 665.228 478.086 C 655.153 472.354 645.077 466.622 634.958 460.155 C 634.929 459.912 634.9 459.668 635.32 458.998 C 637.187 457.921 639.053 456.844 641.03 456.504 C 642.099 457.254 643.816 458.846 644.125 458.608 C 645.478 457.567 646.485 456.035 647.402 454.548 C 647.481 454.42 645.984 453.319 645.646 452.106 C 648.766 449.488 651.887 446.87 655.193 444.926 C 658.273 444.286 662.595 444.672 664.157 442.78 C 666.889 439.469 667.963 434.772 669.545 430.586 C 669.613 430.407 667.816 429.523 667.006 428.25 C 669.371 422.83 671.736 417.409 674.62 411.704 M 405.301 240.762 C 405.603 242.221 405.409 244.25 406.303 245.028 C 408.545 246.977 411.132 248.84 413.902 249.687 C 414.776 249.954 416.692 246.914 418.085 245.345 C 419.01 244.302 419.852 243.184 420.732 242.099 C 421.87 243.061 423.278 243.836 424.094 245.019 C 426.55 248.58 429.676 248.767 432.692 245.69 C 433.925 244.432 435.779 243.598 437.502 243.047 C 441.065 241.907 445.519 242.025 446.792 237.562 C 447.688 234.425 447.641 231.017 447.997 227.728 C 448.511 222.977 445.48 221.279 441.591 220.354 C 437.793 219.449 435.641 221.407 434.17 224.611 C 433.336 226.426 432.399 228.194 431.507 229.983 C 429.984 233.035 427.919 234.155 424.252 233.357 C 416.399 231.649 408.827 234.609 405.301 240.762 M 417.37 271.07 C 413.455 270.97 409.542 270.875 407.012 275.508 C 413.497 276.218 419.192 279.582 425.351 276.208 C 426.517 275.569 428.294 275.973 429.786 276.011 C 442.382 276.325 454.977 276.71 467.574 276.948 C 469.278 276.98 470.996 276.311 472.707 275.967 C 472.704 275.432 472.701 274.898 472.698 274.363 C 471.23 273.904 469.791 273.299 468.291 273.014 C 464.407 272.276 460.511 271.252 456.594 271.115 C 448.223 270.822 439.835 270.992 431.455 271.023 C 427.049 271.038 422.645 271.158 417.37 271.07 M 546.813 268.123 C 533.448 267.604 525.339 270.004 522.586 275.307 C 529.174 277.838 535.83 279.105 542.867 277.127 C 544.563 276.651 546.536 277.267 548.331 277.015 C 550.539 276.705 552.694 276.012 554.871 275.484 C 553.54 273.517 552.359 271.419 550.808 269.643 C 550.137 268.875 548.704 268.772 546.813 268.123 M 501.912 269.961 C 494.606 268.454 488.579 271.681 482.378 274.265 C 482.46 274.705 482.541 275.145 482.622 275.585 C 493.548 275.585 504.474 275.585 516.099 275.585 C 512.621 269.979 507.765 269.833 501.912 269.961 M 443.273 215.979 C 443.985 217.023 444.697 218.067 445.408 219.111 C 445.933 218.556 446.459 218.002 446.984 217.448 C 445.898 216.778 444.813 216.108 443.273 215.979 Z"/>
  <path fill="#FAF6F1" opacity="1.000000" stroke="none" d="M 777.84 209 C 780.737 211.464 783.793 213.929 786.848 216.69 C 785.62 220.29 782.757 219.607 781.69 217.691 C 779.145 213.122 774.925 212.586 770.722 212.128 C 767.727 211.802 765.817 211.016 764.757 207.965 C 763.677 204.856 761.001 204.332 758.18 205.509 C 754.953 206.856 756.391 208.815 757.315 211.176 C 758.771 214.895 757.963 218.468 754.033 220.433 C 750.719 222.09 749.258 224.233 750.411 228.047 C 750.776 229.255 750.414 231.106 749.664 232.14 C 748.096 234.301 746.078 236.143 744.176 238.047 C 743.742 238.482 743.053 238.787 742.437 238.893 C 737.394 239.757 729.543 232.585 730.062 227.519 C 730.17 226.461 730.609 225.056 731.387 224.512 C 735.206 221.841 734.424 220.045 731.147 217.274 C 727.883 214.514 725.498 210.76 720.376 211.84 C 719.871 211.947 719.151 211.392 718.63 211.01 C 714.446 207.935 710.487 204.495 706.068 201.81 C 699.954 198.095 693.934 200.132 688.324 203.434 C 681.542 207.425 674.337 209.045 666.551 207.914 C 665.593 207.774 664.539 207.423 663.791 206.837 C 655.948 200.697 647.235 200.564 637.778 201.852 C 630.677 202.82 623.297 202.232 616.082 201.745 C 607.349 201.156 598.67 199.818 589.947 199.043 C 583.732 198.491 577.443 197.725 571.256 198.127 C 558.56 198.953 545.921 200.631 533.236 201.68 C 528.629 202.061 523.958 201.658 519.316 201.603 C 510.105 201.495 500.894 201.243 491.685 201.312 C 484.636 201.365 477.439 201.023 470.583 202.316 C 463.369 203.677 455.148 201.826 449.094 208.114 C 447.948 209.304 445.212 210.087 443.686 209.592 C 437.269 207.508 430.967 205.025 424.747 202.393 C 416.958 199.097 409.762 195.206 400.394 197.367 C 393.913 198.862 386.682 196.727 379.839 197.124 C 370.644 197.658 361.498 199.053 352.337 200.131 C 351.54 200.225 350.613 200.515 350.044 201.038 C 343.289 207.246 335.818 204.062 328.493 202.754 C 327.687 202.61 326.849 201.988 326.128 202.125 C 320.322 203.226 314.55 204.504 308.748 205.626 C 305.858 206.185 302.876 207.085 300.028 206.822 C 296.878 206.53 293.487 205.66 296.35 200.767 C 298.31 197.417 294.43 194.526 289.292 195.059 C 287.351 195.26 284.986 194.802 282.826 194.322 C 284.394 193.334 286.498 192.668 288.799 192.22 C 289.74 191.93 288.717 192.099 291.193 191.418 C 304.59 189.416 317.775 185.428 331.195 185.263 C 403.459 184.375 475.732 184.269 548.003 184.026 C 589.49 183.887 630.978 184.086 672.465 183.971 C 699.036 183.897 725.036 187.238 750.83 196.266 C 760.292 200.701 769.096 204.914 777.951 209.067 C 777.951 209.067 777.843 209 777.84 209 Z"/>
  <path fill="#FAF6F1" opacity="1.000000" stroke="none" d="M 250.685 208.227 C 251.468 207.45 253.355 206.436 254.288 205.846 C 259.172 203.611 263.924 200.963 269.042 198.949 C 270.546 199.283 271.286 199.751 271.763 199.907 C 272.548 202.926 273.082 205.543 273.916 208.061 C 275.424 212.616 273.88 215.461 269.1 215.886 C 267.046 216.069 264.614 215.925 262.878 214.973 C 259.081 212.889 254.294 211.048 250.685 208.227 Z"/>
  <path fill="#044C41" opacity="1.000000" stroke="none" d=" M554.000000,283.007996 C565.359863,284.357239 576.789246,285.298248 588.052307,287.216003 C594.337341,288.286194 600.302063,291.132568 606.487976,292.911255 C620.647888,296.982697 633.684570,303.680481 644.934875,312.811279 C662.326782,326.926727 672.715271,345.686249 675.993652,368.029144 C677.960938,381.436768 677.501343,394.836365 674.732300,408.825867 C674.421265,410.332703 674.260986,411.160492 674.100708,411.988281 C671.735901,417.408997 669.371155,422.829712 666.669800,428.796875 C662.557800,434.312988 658.782410,439.282623 655.007080,444.252258 C651.886658,446.870331 648.766235,449.488403 645.155457,452.489777 C643.416687,453.837921 642.168335,454.802765 640.919922,455.767578 C639.053345,456.844391 637.186707,457.921234 634.837952,459.266998 C634.570984,459.987213 634.786255,460.438507 635.001465,460.889771 C645.077026,466.621979 655.152588,472.354187 665.723389,478.477692 C669.620789,481.671570 673.023010,484.474121 676.425232,487.276703 C677.397217,488.469849 678.369202,489.662994 679.843262,491.212250 C684.184143,496.396393 688.022888,501.224426 691.861633,506.052460 C710.617859,538.182434 712.905273,572.223267 701.906799,607.044617 C692.466492,636.932800 670.833679,656.378418 643.407227,670.066956 C618.549988,682.473267 591.953674,688.318787 564.507996,689.916504 C543.242981,691.154419 521.887146,690.833374 500.252533,690.821228 C514.469910,681.334839 528.868530,672.000916 543.602173,663.229858 C550.760803,658.968262 555.687012,653.497314 555.803284,645.112366 C556.052795,627.120850 555.790833,609.122253 555.738281,591.126526 C559.313843,589.037964 562.919312,586.998596 566.458374,584.849915 C572.712402,581.052856 576.131470,568.987366 572.747437,562.590393 C570.890625,559.080444 568.120728,559.376526 565.104492,560.989319 C556.590332,565.541931 548.059937,570.064087 539.545776,574.616638 C478.339294,607.343811 417.138885,640.082153 355.925568,672.796448 C349.030548,676.481384 346.525848,674.941162 346.521881,667.018433 C346.482544,588.530823 346.448700,510.043182 346.552460,431.555756 C346.554749,429.814270 347.729980,427.338928 349.143005,426.440948 C399.873535,394.199707 450.737000,362.167511 501.442505,329.887146 C506.029633,326.966858 509.311432,326.933655 513.952698,329.752167 C547.679749,350.233459 581.583740,370.423584 615.439514,390.692780 C617.706360,392.049866 620.037415,393.299713 622.351685,394.606842 C626.838196,385.497345 625.324097,374.018707 618.626038,367.188202 C616.081482,364.593262 613.268494,362.101532 610.174194,360.230316 C577.550720,340.501770 544.832947,320.929352 512.183594,301.243439 C509.085724,299.375580 506.350464,299.398560 503.348755,301.298279 C466.913391,324.357635 430.462738,347.392731 394.004150,370.415344 C378.530396,380.186584 363.028870,389.913818 346.498383,400.316528 C346.498383,397.366516 346.502533,395.313873 346.497742,393.261200 C346.416077,358.273560 346.268707,323.285645 346.437775,288.299225 C346.446381,286.514832 348.868744,284.228577 350.730164,283.127075 C352.253571,282.225555 354.616852,282.647583 356.607910,282.646301 C388.435974,282.626099 420.264038,282.632172 452.794983,282.609497 C453.666443,282.516022 453.835022,282.445312 454.003571,282.374573 C473.404022,282.481842 492.804413,282.594025 512.204895,282.694397 C522.159790,282.745911 532.114746,282.776337 542.980347,282.863312 C547.260681,282.942902 550.630371,282.975433 554.000000,283.007996 M498.908173,456.256958 C485.733002,456.940735 473.402588,460.663239 461.642273,466.514587 C459.869019,467.396851 457.959198,468.160400 456.026672,468.530609 C453.045807,469.101685 450.700348,468.579102 451.057800,464.562073 C451.498383,459.611115 448.309113,457.438782 444.087433,457.267181 C436.106720,456.942871 428.096741,456.962952 420.112640,457.238281 C415.201080,457.407593 413.064941,460.021240 413.038177,464.989899 C412.954681,480.479370 412.912994,495.969269 412.909576,511.458984 C412.908417,516.596741 414.940063,519.109192 419.884796,519.262512 C427.871063,519.510254 435.872833,519.424438 443.864197,519.273499 C448.062500,519.194214 450.872925,517.073547 451.048096,512.595825 C451.191437,508.931946 453.133362,507.181946 456.515656,506.617249 C465.313812,505.148315 473.821594,505.691650 481.456879,510.819946 C489.632385,516.311157 493.845154,524.710022 494.726593,533.933228 C496.083710,548.134888 495.950653,562.479614 496.424164,576.764465 C496.497559,578.978577 496.434387,581.197266 496.434387,584.094116 C516.228210,573.552429 535.044373,563.593872 553.744080,553.421326 C554.901001,552.791992 555.685486,550.489502 555.718872,548.945374 C555.924072,539.455505 556.019897,529.956543 555.811646,520.467957 C555.731445,516.817444 557.135620,514.992310 560.453735,513.915039 C570.600891,510.620697 580.848328,509.260437 591.417175,511.557770 C609.560730,515.501526 624.310547,525.562927 638.130859,537.329346 C640.102295,539.007812 642.120850,540.631042 644.117554,542.279846 C644.517761,539.291870 644.200745,536.868164 643.483215,534.569580 C632.681885,499.966003 609.576599,477.177826 575.770813,465.158234 C551.216614,456.427979 525.608459,455.301849 498.908173,456.256958 M522.501831,421.761475 C525.776855,421.761475 529.051941,421.761475 532.482178,421.761475 C532.482178,414.562866 532.482178,407.901520 532.482178,401.277039 C525.481750,401.277039 518.927856,401.277039 512.363525,401.277039 C512.363525,408.169464 512.363525,414.704529 512.363525,421.762939 C515.623230,421.762939 518.577820,421.762939 522.501831,421.761475 M499.266602,400.927582 C494.001862,400.927582 488.737122,400.927582 483.281921,400.927582 C483.281921,408.095734 483.281921,414.525116 483.281921,421.731750 C489.441803,421.731750 495.393829,421.849152 501.330383,421.599060 C502.174133,421.563507 503.579437,419.778809 503.637360,418.742889 C503.906738,413.924042 503.690216,409.080231 503.857178,404.252594 C503.952881,401.485687 502.598785,400.747375 499.266602,400.927582 M518.628723,392.790955 C522.272644,392.772980 525.945679,393.008545 529.544250,392.595673 C530.757202,392.456512 532.658691,390.735992 532.739685,389.628052 C533.089172,384.850525 533.015869,380.025055 532.766785,375.234161 C532.712463,374.188629 531.338074,372.373901 530.513062,372.340027 C524.457825,372.091492 518.387695,372.205872 512.172913,372.205872 C512.172913,379.283783 512.172913,385.687927 512.172913,392.528839 C514.123291,392.620087 515.900574,392.703247 518.628723,392.790955 M503.805023,391.022461 C503.785156,385.867401 503.915039,380.704132 503.632751,375.563477 C503.567780,374.380676 502.134949,372.331116 501.251892,372.287354 C495.331268,371.993866 489.389099,372.134674 482.989960,372.134674 C482.989960,378.378723 482.896759,383.996643 483.076385,389.605804 C483.108521,390.608978 484.269135,392.427399 484.909332,392.427673 C491.130890,392.430328 497.352570,392.125702 503.805023,391.022461 z"/>
  <path fill="#E95F05" opacity="1.000000" stroke="none" d=" M555.404053,591.145508 C555.790833,609.122253 556.052795,627.120850 555.803284,645.112366 C555.687012,653.497314 550.760803,658.968262 543.602173,663.229858 C528.868530,672.000916 514.469910,681.334839 499.760986,690.762573 C457.127960,691.087952 414.667358,691.087952 372.206726,691.087952 C372.079468,690.783081 371.952240,690.478271 371.825012,690.173401 C432.906647,657.170471 493.988281,624.167480 555.404053,591.145508 z"/>
  <path fill="#FAF6F1" opacity="1.000000" stroke="none" d=" M405.410767,240.408600 C408.826691,234.608963 416.399048,231.648819 424.252014,233.357162 C427.919281,234.154953 429.984009,233.034744 431.506958,229.982635 C432.399231,228.194443 433.335693,226.426468 434.169556,224.611404 C435.641418,221.407425 437.792908,219.449493 441.590637,220.353592 C445.479553,221.279419 448.510864,222.976517 447.996887,227.728134 C447.641113,231.017044 447.687653,234.424835 446.792358,237.562027 C445.518738,242.024796 441.065186,241.906845 437.502289,243.046646 C435.778778,243.597992 433.924561,244.432312 432.692017,245.689850 C429.675934,248.767029 426.550262,248.580322 424.094299,245.019302 C423.278107,243.835876 421.869507,243.061020 420.731750,242.099380 C419.852295,243.183868 419.010437,244.301743 418.084564,245.345047 C416.692444,246.913681 414.775635,249.953964 413.901764,249.686798 C411.131958,248.839951 408.544647,246.977081 406.303131,245.028152 C405.408722,244.250488 405.602539,242.221207 405.410767,240.408600 z"/>
  <path fill="#FAF6F1" opacity="1.000000" stroke="none" d="M 815.65 248.958 C 819.671 256.078 823.583 263.816 827.251 271.275 C 822.621 272.925 817.747 273.613 813.085 274.795 C 805.674 276.673 797.099 269.84 797.069 261.878 C 797.058 258.762 797.644 255.626 798.178 252.538 C 798.321 251.715 799.205 250.458 799.867 250.378 C 804.991 249.757 810.144 249.375 815.65 248.958 Z"/>
  <path fill="#FAF6F2" opacity="1.000000" stroke="none" d=" M417.804657,271.150726 C422.644501,271.158295 427.049438,271.038483 431.454803,271.022614 C439.835297,270.992493 448.223022,270.821716 456.593536,271.114746 C460.511444,271.251923 464.407074,272.275909 468.290833,273.013580 C469.791046,273.298553 471.230438,273.903778 472.697540,274.363098 C472.700684,274.897797 472.703827,275.432495 472.706970,275.967163 C470.995636,276.311401 469.278168,276.980164 467.573944,276.947998 C454.976715,276.710449 442.382294,276.325256 429.786377,276.010590 C428.293976,275.973328 426.517151,275.569183 425.350555,276.208313 C419.192474,279.582184 413.496704,276.218323 407.011719,275.507660 C409.542480,270.875061 413.455109,270.970123 417.804657,271.150726 z"/>
  <path fill="#FAF6F2" opacity="1.000000" stroke="none" d=" M547.214722,268.244965 C548.703613,268.771881 550.136719,268.874695 550.807800,269.643066 C552.358643,271.418610 553.540161,273.516693 554.871460,275.483978 C552.693604,276.011627 550.539062,276.704803 548.330627,277.014984 C546.536377,277.266998 544.562744,276.650970 542.867432,277.127380 C535.830200,279.105072 529.174255,277.838409 522.585938,275.306641 C525.339478,270.004059 533.448364,267.603821 547.214722,268.244965 z"/>
  <path fill="#FAF6F2" opacity="1.000000" stroke="none" d=" M502.347504,269.976501 C507.764954,269.833160 512.621277,269.979279 516.099304,275.584503 C504.473999,275.584503 493.548035,275.584503 482.622101,275.584503 C482.540802,275.144653 482.459503,274.704803 482.378204,274.264954 C488.579285,271.681458 494.606476,268.453949 502.347504,269.976501 z"/>
  <path fill="#FAF6F1" opacity="1.000000" stroke="none" d="M 792.745 222.239 C 798.984 228.426 805.33 235.402 811.342 242.182 C 809.24 246.067 806.936 243.608 805.211 241.646 C 801.232 237.119 797.202 232.621 793.541 227.844 C 792.548 226.547 792.798 224.298 792.745 222.239 Z"/>
  <path fill="#F7F4EF" opacity="1.000000" stroke="none" d=" M655.100098,444.588898 C658.782410,439.282623 662.557800,434.312988 666.610107,429.155365 C667.815613,429.522980 669.612854,430.407013 669.545227,430.585999 C667.962769,434.772308 666.889038,439.468628 664.156738,442.779724 C662.595276,444.671997 658.272583,444.285858 655.100098,444.588898 z"/>
  <path fill="#F7F5EF" opacity="1.000000" stroke="none" d=" M692.211670,505.897369 C688.022888,501.224426 684.184143,496.396393 680.166687,491.286316 C683.384766,490.813385 686.617493,490.755493 688.476685,494.563995 C688.969666,495.573700 690.511963,496.169769 691.679688,496.733856 C695.995483,498.818542 696.367188,502.354187 692.211670,505.897369 z"/>
  <path fill="#F7F4EF" opacity="1.000000" stroke="none" d=" M676.765991,487.061920 C673.023010,484.474121 669.620789,481.671570 666.058411,478.586182 C666.889465,476.885986 667.748108,474.455322 668.904968,474.303955 C670.398499,474.108582 673.117065,475.382843 673.568909,476.646210 C674.776123,480.021667 680.130493,482.074890 676.765991,487.061920 z"/>
  <path fill="#FAF6F2" opacity="1.000000" stroke="none" d="M 554.879 282.849 C 550.83 283.179 546.66 282.855 541.988 282.706 C 543.866 277.512 548.359 277.672 554.879 282.849 Z" style=""/>
  <path fill="#F7F4EF" opacity="1.000000" stroke="none" d=" M640.974915,456.135986 C642.168335,454.802765 643.416687,453.837921 644.941833,452.771423 C645.983704,453.318970 647.481323,454.419952 647.402100,454.548340 C646.485046,456.035156 645.477722,457.567352 644.125427,458.608185 C643.816406,458.846039 642.099060,457.254150 640.974915,456.135986 z"/>
  <path fill="#FAF6F1" opacity="1.000000" stroke="none" d=" M443.500488,215.709076 C444.812927,216.108490 445.898346,216.778259 446.983765,217.448029 C446.458557,218.002228 445.933350,218.556427 445.408142,219.110626 C444.696594,218.066895 443.985016,217.023163 443.500488,215.709076 z"/>
  <path fill="#E2E1E1" opacity="1.000000" stroke="none" d=" M187.003998,336.624908 C186.785217,336.035400 186.567993,335.069580 186.681641,334.046783 C187.010193,334.742737 187.007858,335.495667 187.003998,336.624908 z"/>
  <path fill="#F7F4EF" opacity="1.000000" stroke="none" d=" M674.360474,411.846130 C674.260986,411.160492 674.421265,410.332703 674.772400,409.246521 C674.848877,409.893433 674.734558,410.798706 674.360474,411.846130 z"/>
  <path fill="#F7F4EF" opacity="1.000000" stroke="none" d=" M634.979614,460.522522 C634.786255,460.438507 634.570984,459.987213 634.613159,459.480255 C634.899536,459.668152 634.928589,459.911682 634.979614,460.522522 z"/>
  <path fill="#FAF6F2" opacity="1.000000" stroke="none" d=" M453.969452,282.196106 C453.835022,282.445312 453.666443,282.516022 453.245728,282.479065 C453.307465,282.253510 453.621399,282.135590 453.969452,282.196106 z"/>
  <path fill="#F7F5EF" opacity="1.000000" stroke="none" d=" M499.373596,456.203796 C525.608459,455.301849 551.216614,456.427979 575.770813,465.158234 C609.576599,477.177826 632.681885,499.966003 643.483215,534.569580 C644.200745,536.868164 644.517761,539.291870 644.117554,542.279846 C642.120850,540.631042 640.102295,539.007812 638.130859,537.329346 C624.310547,525.562927 609.560730,515.501526 591.417175,511.557770 C580.848328,509.260437 570.600891,510.620697 560.453735,513.915039 C557.135620,514.992310 555.731445,516.817444 555.811646,520.467957 C556.019897,529.956543 555.924072,539.455505 555.718872,548.945374 C555.685486,550.489502 554.901001,552.791992 553.744080,553.421326 C535.044373,563.593872 516.228210,573.552429 496.434387,584.094116 C496.434387,581.197266 496.497559,578.978577 496.424164,576.764465 C495.950653,562.479614 496.083710,548.134888 494.726593,533.933228 C493.845154,524.710022 489.632385,516.311157 481.456879,510.819946 C473.821594,505.691650 465.313812,505.148315 456.515656,506.617249 C453.133362,507.181946 451.191437,508.931946 451.048096,512.595825 C450.872925,517.073547 448.062500,519.194214 443.864197,519.273499 C435.872833,519.424438 427.871063,519.510254 419.884796,519.262512 C414.940063,519.109192 412.908417,516.596741 412.909576,511.458984 C412.912994,495.969269 412.954681,480.479370 413.038177,464.989899 C413.064941,460.021240 415.201080,457.407593 420.112640,457.238281 C428.096741,456.962952 436.106720,456.942871 444.087433,457.267181 C448.309113,457.438782 451.498383,459.611115 451.057800,464.562073 C450.700348,468.579102 453.045807,469.101685 456.026672,468.530609 C457.959198,468.160400 459.869019,467.396851 461.642273,466.514587 C473.402588,460.663239 485.733002,456.940735 499.373596,456.203796 z"/>
  <path fill="#F1F1EC" opacity="1.000000" stroke="none" d=" M522.017090,421.762207 C518.577820,421.762939 515.623230,421.762939 512.363525,421.762939 C512.363525,414.704529 512.363525,408.169464 512.363525,401.277039 C518.927856,401.277039 525.481750,401.277039 532.482178,401.277039 C532.482178,407.901520 532.482178,414.562866 532.482178,421.761475 C529.051941,421.761475 525.776855,421.761475 522.017090,421.762207 z"/>
  <path fill="#EEEFE9" opacity="1.000000" stroke="none" d=" M499.737000,400.931763 C502.598785,400.747375 503.952881,401.485687 503.857178,404.252594 C503.690216,409.080231 503.906738,413.924042 503.637360,418.742889 C503.579437,419.778809 502.174133,421.563507 501.330383,421.599060 C495.393829,421.849152 489.441803,421.731750 483.281921,421.731750 C483.281921,414.525116 483.281921,408.095734 483.281921,400.927582 C488.737122,400.927582 494.001862,400.927582 499.737000,400.931763 z"/>
  <path fill="#EEEFE9" opacity="1.000000" stroke="none" d=" M518.153320,392.788666 C515.900574,392.703247 514.123291,392.620087 512.172913,392.528839 C512.172913,385.687927 512.172913,379.283783 512.172913,372.205872 C518.387695,372.205872 524.457825,372.091492 530.513062,372.340027 C531.338074,372.373901 532.712463,374.188629 532.766785,375.234161 C533.015869,380.025055 533.089172,384.850525 532.739685,389.628052 C532.658691,390.735992 530.757202,392.456512 529.544250,392.595673 C525.945679,393.008545 522.272644,392.772980 518.153320,392.788666 z"/>
  <path fill="#EEEFE9" opacity="1.000000" stroke="none" d=" M503.689636,391.465576 C497.352570,392.125702 491.130890,392.430328 484.909332,392.427673 C484.269135,392.427399 483.108521,390.608978 483.076385,389.605804 C482.896759,383.996643 482.989960,378.378723 482.989960,372.134674 C489.389099,372.134674 495.331268,371.993866 501.251892,372.287354 C502.134949,372.331116 503.567780,374.380676 503.632751,375.563477 C503.915039,380.704132 503.785156,385.867401 503.689636,391.465576 z"/>
</svg>