<svg version="1.2" xmlns="http://www.w3.org/2000/svg" viewBox="0 0 2715 2626" width="2715" height="2626"><style>.a{fill:#f9f6f1}.b{fill:#faf6f1}.c{fill:#044c41}.d{fill:#e95f05}.e{fill:#faf6f2}.f{fill:#f7f4ef}.g{fill:#f7f5ef}.h{fill:#e2e1e1}.i{fill:#f1f1ec}.j{fill:#eeefe9}</style><path class="a" d="m343.1 65c18.4-7 36.7-13.9 57.4-19.5 10.7 2 19 3.9 27.1 3 21.4-2.2 37.5 9.9 29.4 23.8-11.9 20.4 2.2 24 15.3 25.2 11.9 1.1 24.3-2.6 36.3-5 24.2-4.6 48.2-10 72.4-14.5 3-0.6 6.5 2 9.8 2.6 30.5 5.4 61.6 18.7 89.7-7.2 2.4-2.1 6.3-3.4 9.6-3.7 38.1-4.5 76.2-10.3 114.5-12.6 28.5-1.6 58.6 7.3 85.6 1 39-8.9 68.9 7.3 101.4 21 25.9 10.9 52.1 21.3 78.8 30 6.4 2 17.8-1.2 22.5-6.2 25.2-26.2 59.5-18.5 89.5-24.1 28.5-5.4 58.5-4 87.9-4.2 38.3-0.3 76.6 0.7 115 1.2 19.3 0.2 38.8 1.9 58 0.3 52.8-4.4 105.4-11.3 158.2-14.8 25.8-1.7 52 1.5 77.9 3.8 36.3 3.3 72.4 8.8 108.8 11.3 30 2 60.7 4.5 90.3 0.4 39.4-5.3 75.7-4.8 108.3 20.8 3.1 2.4 7.5 3.9 11.5 4.5 32.4 4.7 62.4-2.1 90.7-18.7 23.3-13.7 48.4-22.2 73.8-6.8 18.4 11.2 34.9 25.6 52.3 38.4 2.2 1.5 5.2 3.9 7.3 3.4 21.3-4.5 31.3 11.1 44.8 22.6 13.7 11.6 16.9 19.1 1 30.2-3.2 2.2-5 8.1-5.5 12.5-2.1 21.1 30.6 51 51.5 47.4 2.6-0.5 5.5-1.8 7.3-3.6 7.9-7.9 16.3-15.6 22.8-24.6 3.2-4.3 4.7-12 3.1-17-4.8-15.9 1.3-24.8 15.1-31.7 16.4-8.2 19.8-23.1 13.7-38.6-3.9-9.8-9.8-17.9 3.6-23.5 11.7-5 22.9-2.8 27.4 10.2 4.4 12.7 12.3 16 24.8 17.3 17.5 1.9 35.1 4.1 45.7 23.2 4.4 8 14.3 9.4 21.3-3.7 8.7 7.2 18.3 15.1 24.7 22.6 0.2 8.6-0.8 17.9 3.3 23.3 15.3 19.9 32 38.7 48.6 57.5 7.2 8.2 15.2 16.2 25.4 2.1 7.3 9.9 13.5 19.2 18.1 28.4-23 1.7-44.4 3.3-65.7 5.9-2.8 0.3-6.5 5.5-7.1 9-2.2 12.8-4.6 25.9-4.6 38.9 0.1 33.1 35.8 61.6 66.7 53.7 19.4-4.9 38.6-10.5 59.1-14.8 8.7 24.5 19.9 47.5 23.4 71.7 10.1 71.3 17.1 143.1 25.4 216.6-6.7 503 14.3 1004.4-13.9 1506.1-11.6 37.7-21.8 74.7-33 112.6-5.9 12.8-10.7 24.7-16.2 37.8-4.4 10-8.2 18.8-13.2 28.2-43.9 68-96.2 126-162.4 171.2-119.2 81.4-254.7 113.3-394.9 114.4-468.9 3.4-937.8 1.4-1406.8 1.2-25.5 0-51-2.2-76.5-3.9-93.7-6.1-184.4-24-271-62.2-66.3-29.3-124.5-70-174-121.8-28.9-30.2-51.9-66-77.8-100.8-15.5-41.3-32.4-80.6-45.4-121.1-9.7-30.5-14.2-62.6-21-95.9-2.9-42.4-8.1-83-8.1-123.6-0.6-443.9-0.4-887.8-0.4-1333.4 0-9 0-16.1 0-24.8 0-4.7 0.1-7.8 0.1-12.8 7.4-61.2 12.5-121.1 23-179.9 11-61.5 33.7-119.6 67.5-172.7 46-72.5 106.9-129.8 180.1-172.8 15 11.8 29.4 23 45.2 31.7 7.3 3.9 17.4 4.5 25.9 3.8 19.9-1.8 26.4-13.7 20.1-32.6-3.5-10.5-5.7-21.4-9-34-2-0.6-6.7-2.2-11.5-3.7zm1688.8 885.6c0.5-3.8 1-7.5 1.1-14.8 10.9-55.4 12.8-111.2 4.6-167.1-13.6-93-56.9-171.1-129.3-229.9-46.8-38-101.1-65.9-160.1-82.8-25.7-7.4-50.6-19.3-76.7-23.7-46.9-8-96.5-6.3-143.7-16-21.9-19.5-35.7-23.5-47.8-2.4-41.4-0.1-82.9-0.3-124.3-0.5-80.8-0.4-161.6-0.9-242.6-2.8-1.3 0.5-2.6 1-7.7 2.6-132.5 0-265-0.1-397.5 0-8.3 0-18.2-1.7-24.5 2-7.8 4.6-17.8 14.1-17.9 21.6-0.7 145.6-0.1 291.3 0.3 437 0 8.6 0 17.1 0 29.4 68.8-43.3 133.3-83.8 197.8-124.5q227.7-143.8 455.2-287.8c12.5-7.9 23.9-8 36.8-0.2 135.9 81.9 272.2 163.4 408 245.6 12.9 7.8 24.6 18.1 35.2 28.9 27.9 28.5 34.2 76.3 15.5 114.2-9.7-5.4-19.4-10.6-28.8-16.3-141-84.4-282.1-168.5-422.5-253.7-19.4-11.8-33-11.6-52.1 0.5-211.1 134.4-422.9 267.8-634.1 402.1-5.9 3.7-10.8 14-10.8 21.3-0.4 326.8-0.3 653.6-0.1 980.4 0 33 10.4 39.4 39.1 24 254.9-136.2 509.7-272.5 764.5-408.8 35.5-18.9 71-37.8 106.4-56.7 12.6-6.7 24.1-8 31.9 6.7 14 26.6-0.2 76.8-26.2 92.6-14.8 9-29.8 17.5-47.4 26.3q-381.5 206.2-763 412.3 0.8 1.9 1.6 3.8c176.8 0 353.6 0 534.5 0.5 88.7-1.6 177.6-0.2 266.2-5.4 114.2-6.6 225-31 328.4-82.6 114.2-57 204.3-138 243.6-262.4 45.8-145 36.3-286.8-38.9-421.8 15.8-14.2 14.3-28.9-3.7-37.6-4.8-2.3-11.3-4.8-13.3-9-7.8-15.8-21.2-15.6-38-15.4-4.1-5-8.1-10-9.3-16.7 12.5-19.9-9.8-28.4-14.8-42.5-1.9-5.3-13.2-10.6-19.4-9.7-4.8 0.6-8.4 10.7-15.3 15.7-42-23.9-83.9-47.7-126-74.7-0.2-1-0.3-2 1.5-4.8 7.7-4.5 15.5-8.9 23.7-10.4 4.5 3.2 11.6 9.8 12.9 8.8 5.7-4.3 9.9-10.7 13.7-16.9 0.3-0.5-5.9-5.1-7.3-10.2 13-10.9 25.9-21.8 39.7-29.9 12.8-2.6 30.8-1 37.3-8.9 11.4-13.8 15.9-33.3 22.5-50.8 0.3-0.7-7.2-4.4-10.6-9.7 9.8-22.6 19.7-45.1 31.7-68.9zm-1121.3-711.8c1.3 6.1 0.5 14.6 4.2 17.8 9.3 8.1 20.1 15.9 31.6 19.4 3.6 1.1 11.6-11.5 17.4-18.1 3.9-4.3 7.4-9 11-13.5 4.8 4 10.6 7.2 14 12.2 10.3 14.8 23.3 15.6 35.8 2.8 5.2-5.3 12.9-8.8 20.1-11 14.8-4.8 33.3-4.3 38.6-22.9 3.8-13.1 3.6-27.2 5.1-40.9 2.1-19.8-10.5-26.9-26.7-30.7-15.8-3.8-24.8 4.3-30.9 17.7-3.5 7.5-7.4 14.9-11.1 22.4-6.3 12.7-14.9 17.3-30.2 14-32.7-7.1-64.2 5.2-78.9 30.8zm50.2 126.2c-16.3-0.4-32.5-0.8-43.1 18.5 27 3 50.7 17 76.4 2.9 4.8-2.6 12.2-1 18.4-0.8 52.5 1.3 104.9 2.9 157.4 3.9 7.1 0.1 14.2-2.6 21.3-4.1q0-3.3 0-6.7c-6.1-1.9-12.1-4.4-18.3-5.6-16.2-3-32.4-7.3-48.7-7.9-34.9-1.2-69.8-0.5-104.7-0.4-18.4 0.1-36.7 0.6-58.7 0.2zm539-12.2c-55.7-2.2-89.4 7.8-100.9 29.9 27.4 10.5 55.2 15.8 84.4 7.6 7.1-2 15.3 0.5 22.8-0.5 9.2-1.3 18.2-4.2 27.2-6.4-5.5-8.2-10.4-16.9-16.9-24.3-2.8-3.2-8.7-3.6-16.6-6.3zm-187 7.6c-30.4-6.3-55.5 7.2-81.3 17.9q0.5 2.8 1 5.5c45.5 0 91 0 139.4 0-14.5-23.3-34.7-23.9-59.1-23.4zm-244.1-224.8q4.4 6.6 8.9 13.1 3.3-3.5 6.5-6.9c-4.5-2.8-9-5.6-15.4-6.2z"/><path class="b" d="m2461.6 106.6c12.1 10.2 24.8 20.5 37.6 32-5.2 15-17.1 12.2-21.5 4.2-10.6-19.1-28.2-21.3-45.7-23.2-12.5-1.3-20.4-4.6-24.8-17.3-4.5-13-15.7-15.2-27.4-10.2-13.4 5.6-7.5 13.7-3.6 23.5 6.1 15.5 2.7 30.4-13.7 38.6-13.8 6.9-19.9 15.8-15.1 31.7 1.6 5 0.1 12.7-3.1 17-6.5 9-14.9 16.7-22.8 24.6-1.8 1.8-4.7 3.1-7.3 3.6-20.9 3.6-53.6-26.3-51.5-47.4 0.5-4.4 2.3-10.3 5.5-12.5 15.9-11.1 12.7-18.6-1-30.2-13.5-11.5-23.5-27.1-44.8-22.6-2.1 0.5-5.1-1.9-7.3-3.4-17.4-12.8-33.9-27.2-52.3-38.4-25.4-15.4-50.5-6.9-73.8 6.8-28.3 16.6-58.3 23.4-90.7 18.7-4-0.6-8.4-2.1-11.5-4.5-32.6-25.6-68.9-26.1-108.3-20.8-29.6 4.1-60.3 1.6-90.3-0.4-36.4-2.5-72.5-8-108.8-11.3-25.9-2.3-52.1-5.5-77.9-3.8-52.8 3.5-105.4 10.4-158.2 14.8-19.2 1.6-38.7-0.1-58-0.3-38.4-0.5-76.7-1.5-115-1.2-29.4 0.2-59.4-1.2-87.9 4.2-30 5.6-64.3-2.1-89.5 24.1-4.7 5-16.1 8.2-22.5 6.2-26.7-8.7-52.9-19.1-78.8-30-32.5-13.7-62.4-29.9-101.4-21-27 6.3-57.1-2.6-85.6-1-38.3 2.3-76.4 8.1-114.5 12.6-3.3 0.3-7.2 1.6-9.6 3.7-28.1 25.9-59.2 12.6-89.7 7.2-3.3-0.6-6.8-3.2-9.8-2.6-24.2 4.5-48.2 9.9-72.4 14.5-12 2.4-24.4 6.1-36.3 5-13.1-1.2-27.2-4.8-15.3-25.2 8.1-13.9-8-26-29.4-23.8-8.1 0.9-17.9-1-26.9-3 6.5-4.1 15.3-6.9 24.8-8.8 4-1.2-0.3-0.5 10-3.3 55.8-8.4 110.7-25 166.6-25.6 300.8-3.7 601.7-4.2 902.6-5.2 172.8-0.6 345.5 0.2 518.2-0.2 110.7-0.3 218.9 13.6 326.3 51.2 39.4 18.4 76 36 112.9 53.3 0 0-0.4-0.3-0.5-0.3z"/><path class="b" d="m266.9 103.4c3.2-3.3 11.1-7.5 15-9.9 20.3-9.4 40.1-20.4 61.4-28.8 6.3 1.4 9.3 3.4 11.3 4 3.3 12.6 5.5 23.5 9 34 6.3 18.9-0.2 30.8-20.1 32.6-8.5 0.7-18.6 0.1-25.9-3.8-15.8-8.7-35.7-16.4-50.7-28.1z"/><path class="c" d="m1529.7 414.7c47.3 5.7 94.9 9.6 141.8 17.6 26.1 4.4 51 16.3 76.7 23.7 59 16.9 113.3 44.8 160.1 82.8 72.4 58.8 115.7 136.9 129.3 229.9 8.2 55.9 6.3 111.7-5.2 169.9-1.3 6.3-2 9.7-2.7 13.2-9.8 22.6-19.7 45.1-30.9 70-17.1 22.9-32.8 43.6-48.6 64.3-13 10.9-25.9 21.8-41 34.3-7.2 5.6-12.4 9.7-17.6 13.7-7.8 4.5-15.6 8.9-25.3 14.5-1.1 3-0.2 4.9 0.6 6.8 42 23.9 83.9 47.7 128 73.2 16.2 13.3 30.3 25 44.5 36.7 4.1 4.9 8.1 9.9 14.2 16.4 18.1 21.5 34.1 41.6 50.1 61.7 78.1 133.8 87.6 275.6 41.8 420.6-39.3 124.4-129.4 205.4-243.6 262.4-103.4 51.6-214.2 76-328.4 82.6-88.6 5.2-177.5 3.8-267.6 3.8 59.2-39.5 119.2-78.4 180.5-114.9 29.8-17.7 50.3-40.5 50.8-75.4 1-75 0-149.9-0.3-224.8 14.9-8.7 29.9-17.2 44.7-26.2 26-15.8 40.2-66 26.2-92.6-7.8-14.7-19.3-13.4-31.9-6.7-35.4 18.9-70.9 37.8-106.4 56.7-254.8 136.3-509.6 272.6-764.5 408.8-28.7 15.4-39.1 9-39.1-24-0.2-326.8-0.3-653.6 0.1-980.4 0-7.3 4.9-17.6 10.8-21.3 211.2-134.3 423-267.7 634.1-402.1 19.1-12.1 32.7-12.3 52.1-0.5 140.4 85.3 281.5 169.3 422.5 253.7 9.4 5.7 19.1 10.9 28.8 16.3 18.7-37.9 12.4-85.7-15.5-114.2-10.6-10.8-22.3-21.1-35.2-28.9-135.8-82.2-272.1-163.7-408-245.6-12.9-7.8-24.3-7.7-36.8 0.2q-227.5 144-455.2 287.8c-64.5 40.7-129 81.2-197.8 124.5 0-12.3 0-20.8 0-29.4-0.4-145.7-1-291.4-0.3-437 0.1-7.5 10.1-17 17.9-21.6 6.3-3.7 16.2-2 24.5-2 132.5-0.1 265 0 400.4-0.1 3.7-0.4 4.4-0.7 5.1-1 80.7 0.4 161.5 0.9 242.3 1.3 41.4 0.2 82.9 0.4 128.1 0.7 17.8 0.4 31.9 0.5 45.9 0.6zm-229.4 721.4c-54.8 2.9-106.2 18.4-155.1 42.7-7.4 3.7-15.4 6.9-23.4 8.4-12.4 2.4-22.2 0.2-20.7-16.5 1.8-20.6-11.4-29.7-29-30.4-33.2-1.3-66.6-1.3-99.8-0.1-20.5 0.7-29.4 11.6-29.5 32.3q-0.5 96.7-0.5 193.5c0 21.4 8.4 31.8 29 32.5 33.3 1 66.6 0.6 99.9 0 17.4-0.3 29.1-9.2 29.9-27.8 0.6-15.3 8.6-22.6 22.7-24.9 36.7-6.1 72.1-3.9 103.9 17.5 34 22.9 51.5 57.8 55.2 96.2 5.7 59.2 5.1 118.9 7.1 178.4 0.3 9.2 0 18.4 0 30.5 82.4-43.9 160.8-85.4 238.6-127.7 4.9-2.6 8.1-12.2 8.3-18.7 0.8-39.5 1.2-79 0.3-118.5-0.3-15.2 5.6-22.8 19.4-27.3 42.2-13.7 84.9-19.4 128.9-9.8 75.5 16.4 136.9 58.3 194.5 107.3 8.2 7 16.6 13.7 24.9 20.6 1.7-12.5 0.3-22.5-2.6-32.1-45-144.1-141.2-239-282-289-102.2-36.4-208.8-41.1-320-37.1zm98.3-143.6c13.6 0 27.2 0 41.5 0 0-30 0-57.7 0-85.3-29.1 0-56.4 0-83.7 0 0 28.7 0 55.9 0 85.3 13.5 0 25.8 0 42.2 0zm-96.8-86.8c-21.9 0-43.8 0-66.5 0 0 29.9 0 56.6 0 86.7 25.6 0 50.4 0.4 75.1-0.6 3.5-0.1 9.4-7.6 9.6-11.9 1.1-20.1 0.2-40.2 0.9-60.3 0.4-11.5-5.2-14.6-19.1-13.9zm80.6-33.8c15.2-0.1 30.5 0.9 45.5-0.9 5-0.5 12.9-7.7 13.3-12.3 1.4-19.9 1.1-40 0.1-60-0.2-4.3-6-11.9-9.4-12-25.2-1-50.5-0.6-76.3-0.6 0 29.5 0 56.2 0 84.7 8.1 0.3 15.5 0.7 26.8 1.1zm-61.7-7.4c-0.1-21.5 0.5-43-0.7-64.4-0.3-4.9-6.2-13.4-9.9-13.6-24.7-1.2-49.4-0.7-76-0.7 0 26-0.4 49.4 0.3 72.8 0.1 4.2 5 11.7 7.6 11.7 25.9 0 51.9-1.2 78.7-5.8z"/><path class="d" d="m1535.5 1697.8c1.7 74.8 2.7 149.7 1.7 224.7-0.5 34.9-21 57.7-50.8 75.4-61.3 36.5-121.3 75.4-182.5 114.6-177.5 1.4-354.3 1.4-531.1 1.4q-0.8-1.9-1.6-3.8c254.3-137.4 508.6-274.8 764.3-412.3z"/><path class="b" d="m911.1 237.4c14.2-24.2 45.7-36.5 78.4-29.4 15.3 3.3 23.9-1.3 30.2-14 3.7-7.5 7.6-14.9 11.1-22.4 6.1-13.4 15.1-21.5 30.9-17.7 16.2 3.8 28.8 10.9 26.7 30.7-1.5 13.7-1.3 27.8-5.1 40.9-5.3 18.6-23.8 18.1-38.6 22.8-7.2 2.3-14.9 5.8-20.1 11.1-12.5 12.8-25.5 12-35.8-2.8-3.4-5-9.2-8.2-14-12.2-3.6 4.5-7.1 9.2-11 13.5-5.8 6.6-13.8 19.2-17.4 18.1-11.5-3.5-22.3-11.3-31.6-19.4-3.8-3.2-2.9-11.7-3.7-19.2z"/><path class="b" d="m2619.1 273c16.7 29.6 33 61.8 48.3 92.9-19.3 6.9-39.6 9.7-59 14.6-30.9 7.9-66.6-20.6-66.7-53.7 0-13 2.4-26.1 4.6-38.9 0.6-3.5 4.3-8.7 7.1-9 21.3-2.6 42.7-4.2 65.7-5.9z"/><path class="e" d="m962.7 365.4c20.1 0 38.4-0.5 56.8-0.6 34.9-0.1 69.8-0.8 104.7 0.4 16.3 0.6 32.5 4.9 48.7 7.9 6.2 1.2 12.2 3.7 18.3 5.6q0 3.4 0 6.7c-7.1 1.5-14.2 4.2-21.3 4.1-52.5-1-104.9-2.6-157.4-3.9-6.2-0.2-13.6-1.8-18.4 0.8-25.7 14.1-49.4 0.1-76.4-2.9 10.6-19.3 26.8-18.9 45-18.1z"/><path class="e" d="m1501.5 353.3c6.2 2.2 12.1 2.6 14.9 5.8 6.5 7.4 11.4 16.1 16.9 24.3-9 2.2-18 5.1-27.2 6.4-7.5 1-15.7-1.5-22.7 0.5-29.3 8.2-57.1 2.9-84.5-7.6 11.5-22.1 45.2-32.1 102.6-29.4z"/><path class="e" d="m1314.6 360.5c22.6-0.6 42.8 0 57.3 23.3-48.4 0-93.9 0-139.4 0q-0.5-2.7-1-5.5c25.8-10.7 50.9-24.2 83.1-17.8z"/><path class="b" d="m2523.7 161.7c26 25.8 52.4 54.8 77.4 83-8.7 16.2-18.3 6-25.5-2.2-16.6-18.8-33.3-37.6-48.6-57.5-4.1-5.4-3.1-14.7-3.3-23.3z"/><path class="f" d="m1950.6 1087.5c15.4-22.1 31.1-42.8 47.9-64.2 5.1 1.5 12.6 5.2 12.3 5.9-6.6 17.5-11.1 37-22.5 50.8-6.5 7.9-24.5 6.3-37.7 7.5z"/><path class="g" d="m2105.1 1342.8c-17.4-19.5-33.4-39.6-50.1-60.8 13.4-2 26.8-2.2 34.6 13.6 2 4.2 8.5 6.7 13.3 9 18 8.7 19.5 23.4 2.2 38.2z"/><path class="f" d="m2040.8 1264.4c-15.6-10.8-29.7-22.5-44.5-35.3 3.4-7.1 7-17.2 11.8-17.8 6.2-0.9 17.5 4.4 19.4 9.7 5 14.1 27.3 22.6 13.3 43.4z"/><path class="e" d="m1533.4 414.1c-16.9 1.4-34.3 0-53.7-0.6 7.8-21.6 26.5-21 53.7 0.6z"/><path class="f" d="m1891.8 1135.6c5-5.5 10.2-9.6 16.5-14 4.4 2.3 10.6 6.9 10.3 7.4-3.8 6.2-8 12.6-13.7 16.9-1.3 1-8.4-5.6-13.1-10.3z"/><path class="b" d="m1069.6 134.5c5.5 1.7 10 4.5 14.5 7.3q-3.2 3.4-6.5 6.9c-3-4.4-5.9-8.7-8-14.2z"/><path class="h" d="m1.7 638c-0.9-2.5-1.8-6.5-1.3-10.7 1.4 2.9 1.3 6 1.3 10.7z"/><path class="f" d="m2030.8 951.2c-0.4-2.9 0.3-6.3 1.7-10.8 0.4 2.7-0.1 6.4-1.7 10.8z"/><path class="f" d="m1866.9 1153.9c-0.8-0.4-1.7-2.3-1.6-4.4 1.2 0.8 1.3 1.8 1.6 4.4z"/><path class="e" d="m1113.2 411.4c-0.5 1-1.2 1.3-3 1.1 0.3-0.9 1.6-1.4 3-1.1z"/><path class="g" d="m1302.3 1135.9c109.2-3.8 215.8 0.9 318 37.3 140.8 50 237 144.9 282 289 2.9 9.6 4.3 19.6 2.6 32.1-8.3-6.9-16.7-13.6-24.9-20.6-57.6-49-119-90.9-194.5-107.3-44-9.6-86.7-3.9-128.9 9.8-13.8 4.5-19.7 12.1-19.4 27.3 0.9 39.5 0.5 79-0.3 118.5-0.2 6.5-3.4 16.1-8.3 18.7-77.8 42.3-156.2 83.8-238.6 127.7 0-12.1 0.3-21.3 0-30.5-2-59.5-1.4-119.2-7.1-178.4-3.7-38.4-21.2-73.3-55.2-96.2-31.8-21.4-67.2-23.6-103.9-17.5-14.1 2.3-22.1 9.6-22.7 24.9-0.8 18.6-12.5 27.5-29.9 27.8-33.3 0.6-66.6 1-99.9 0-20.6-0.7-29-11.1-29-32.5q0-96.8 0.5-193.5c0.1-20.7 9-31.6 29.5-32.3 33.2-1.2 66.6-1.2 99.8 0.1 17.6 0.7 30.8 9.8 29 30.4-1.5 16.7 8.3 18.9 20.7 16.5 8-1.5 16-4.7 23.4-8.4 48.9-24.3 100.3-39.8 157.1-42.9z"/><path class="i" d="m1396.5 992.5c-14.3 0-26.6 0-40.1 0 0-29.4 0-56.6 0-85.3 27.3 0 54.6 0 83.7 0 0 27.6 0 55.3 0 85.3-14.3 0-27.9 0-43.6 0z"/><path class="j" d="m1303.8 905.7c11.9-0.7 17.5 2.4 17.1 13.9-0.7 20.1 0.2 40.2-0.9 60.3-0.2 4.3-6.1 11.8-9.6 11.9-24.7 1-49.5 0.6-75.1 0.6 0-30.1 0-56.8 0-86.7 22.7 0 44.6 0 68.5 0z"/><path class="j" d="m1380.5 871.8c-9.4-0.3-16.8-0.7-24.9-1 0-28.5 0-55.2 0-84.7 25.8 0 51.1-0.4 76.3 0.6 3.4 0.1 9.2 7.7 9.4 12 1 20 1.3 40.1-0.1 60-0.4 4.6-8.3 11.8-13.3 12.3-15 1.8-30.3 0.8-47.4 0.8z"/><path class="j" d="m1320.2 866.3c-26.3 2.8-52.3 4-78.2 4-2.6 0-7.5-7.5-7.6-11.7-0.7-23.4-0.3-46.8-0.3-72.8 26.6 0 51.3-0.5 76 0.7 3.7 0.2 9.6 8.7 9.9 13.6 1.2 21.4 0.6 42.9 0.2 66.2z"/></svg>